<svg width="125" height="56" viewBox="0 0 125 56" fill="none" xmlns="http://www.w3.org/2000/svg">
<mask id="mask0_1_30" style="mask-type:luminance" maskUnits="userSpaceOnUse" x="-1" y="-1" width="55" height="58">
<path d="M-0.739746 -0.298096H53.8466V56.2671H-0.739746V-0.298096Z" fill="white"/>
</mask>
<g mask="url(#mask0_1_30)">
<mask id="mask1_1_30" style="mask-type:luminance" maskUnits="userSpaceOnUse" x="-1" y="-1" width="55" height="58">
<path d="M-0.739746 -0.294495H53.8466V56.2707H-0.739746V-0.294495Z" fill="white"/>
</mask>
<g mask="url(#mask1_1_30)">
<mask id="mask2_1_30" style="mask-type:luminance" maskUnits="userSpaceOnUse" x="-1" y="-1" width="55" height="58">
<path d="M-0.739746 -0.294495H53.8466V56.2707H-0.739746V-0.294495Z" fill="white"/>
</mask>
<g mask="url(#mask2_1_30)">
<mask id="mask3_1_30" style="mask-type:luminance" maskUnits="userSpaceOnUse" x="-1" y="-1" width="55" height="58">
<path d="M-0.739746 -0.298096H53.8466V56.2671H-0.739746V-0.298096Z" fill="white"/>
</mask>
<g mask="url(#mask3_1_30)">
<path fill-rule="evenodd" clip-rule="evenodd" d="M19.8787 21.0279L13.2417 34.4419H25.1437L19.8787 21.0279ZM20.8987 13.5505L36.7585 53.7387L36.9021 54.0296L36.9883 54.2631L37.0745 54.4678L37.193 54.6725L37.2792 54.9059L37.4229 55.1107L37.5989 55.4303L37.8323 55.7894H33.0593L33.0305 55.4985V55.2364L33.0018 54.9742L32.9444 54.7407L32.9156 54.4786L32.8294 54.2739L32.7217 53.7351L25.8441 35.9288H12.5162L3.99016 53.7351L3.87524 53.9686L3.78904 54.1733L3.70285 54.378L3.64538 54.5827L3.58792 54.8162L3.50173 55.0783L3.47299 55.398L3.40835 55.7894H0.00366211L0.208374 55.5273L0.352032 55.2651L0.528012 55.0029L0.67167 54.7695L0.847651 54.5073L1.13856 53.9829L1.28221 53.7495L20.8987 13.5505Z" fill="#B11116"/>
<path fill-rule="evenodd" clip-rule="evenodd" d="M35.5662 21.0279L28.9328 34.4419H40.8635L35.5662 21.0279ZM36.6436 13.5505L52.5034 53.7387L52.6183 54.0296L52.7332 54.2631L52.8194 54.4678L52.938 54.6725L53.0529 54.9059L53.1714 55.1107L53.3761 55.4303L53.5808 55.7894H48.8078V55.4985L48.7791 55.2364L48.7216 54.9742L48.6929 54.7407L48.6354 54.4786L48.6067 54.2738L48.5241 53.9937L48.4666 53.7315L41.5315 35.9288H28.2648L19.7064 53.7351L19.6202 53.9686L19.534 54.1733L19.4478 54.378L19.3903 54.5827L19.3041 54.8162L19.2754 55.0783L19.1892 55.398L19.1533 55.7894H15.7773L15.9533 55.5273L16.1005 55.2651L16.2765 55.0029L16.4202 54.7695L16.5674 54.5073L16.7398 54.2451L16.8583 53.9829L17.0343 53.7495L36.6436 13.5505ZM20.7838 1.01997L21.1609 1.0487L21.4805 1.1349L21.8397 1.22109L22.1988 1.33602L22.4897 1.512L22.7806 1.71671L23.0715 1.95015L23.305 2.1836L23.5384 2.50324L23.9443 3.14251L24.0915 3.50166L24.2064 3.87876L24.2926 4.31691L24.3501 4.72634L24.3645 5.15013L24.3357 5.55955L24.2783 5.99771L24.1921 6.40354L24.0771 6.78423L23.9299 7.16133L23.7252 7.52048L23.5205 7.84012L23.0536 8.42193L22.7627 8.65537L22.4718 8.86009L22.1809 9.0648L21.8217 9.20846L21.4626 9.29465L21.1429 9.38084H20.4246L19.7279 9.20486L19.3688 9.06121L19.0743 8.84572L18.8121 8.64101L18.5212 8.40756L18.259 8.11666L18.0256 7.82575L17.8208 7.50611L17.6485 7.14697L17.4725 6.76987L17.3576 6.38917L17.2785 5.99412L17.2498 5.55596L17.2067 5.15013L17.2354 4.71556L17.2785 4.30614L17.3647 3.86798L17.4797 3.49088L17.6556 3.13174L17.828 2.8121L18.0327 2.49246L18.2662 2.17282L18.5284 1.93938L18.8193 1.70594L19.0814 1.50122L19.4011 1.32524L19.7602 1.21032L20.1194 1.12412L20.4785 1.03793L20.8377 1.0092M20.8089 -0.0107727L21.4482 0.0179588L22.0372 0.122111L22.6477 0.237037L23.2296 0.413017L23.8114 0.646461L24.3357 0.908636L24.8313 1.22827L25.2982 1.54791L25.7041 1.91783L26.0812 2.32366L26.4008 2.76182L26.6917 3.22871L26.8964 3.71355L27.0113 4.20917L27.1299 4.73352L27.1586 5.2866L27.1299 5.83968L27.0113 6.36403L26.8964 6.85965L26.6917 7.35527L26.4008 7.81857L26.0812 8.25672L25.7041 8.66256L25.2982 9.04325L24.8313 9.36289L24.3357 9.68252L23.8114 9.9447L23.2296 10.1781L22.6477 10.3541L22.0372 10.4691L21.3979 10.5552L20.7586 10.584L20.0906 10.5552L19.4334 10.4762L18.8229 10.3613L18.2231 10.1781L17.67 9.9447L17.1457 9.68252L16.65 9.36289L16.2011 9.05043L15.7953 8.66974L15.4182 8.26391L15.0985 7.82575L14.8364 7.36245L14.6316 6.86684L14.4557 6.37122L14.3407 5.84687L14.312 5.29379L14.3407 4.7407L14.4557 4.21635L14.6137 3.71355L14.8184 3.21793L15.0806 2.75104L15.4002 2.31289L15.7809 1.91783L16.2011 1.55869L16.668 1.23905L17.1636 0.91941L17.688 0.657235L18.241 0.423792L18.8516 0.247811L19.4334 0.122111L20.0763 0.0359161L20.8089 -0.0107727Z" fill="#B11116"/>
</g>
</g>
</g>
</g>
<path d="M124.178 49.1525C124.333 49.1468 124.483 49.0955 124.609 49.005C124.736 48.9145 124.832 48.7888 124.888 48.6436C124.943 48.4984 124.954 48.3402 124.92 48.1887C124.886 48.0372 124.807 47.8991 124.695 47.7918C124.583 47.6844 124.441 47.6126 124.289 47.5851C124.136 47.5577 123.978 47.576 123.836 47.6376C123.693 47.6993 123.572 47.8016 123.487 47.9318C123.402 48.0619 123.358 48.2142 123.359 48.3695C123.358 48.4757 123.379 48.581 123.42 48.6789C123.461 48.7768 123.522 48.8652 123.599 48.9386C123.675 49.012 123.766 49.0689 123.866 49.1056C123.966 49.1424 124.072 49.1584 124.178 49.1525ZM124.896 55.7607V49.9821H123.442V55.7607H124.896ZM113.511 55.7607H114.948V52.3417C114.948 52.1762 114.972 52.0117 115.02 51.8532C115.091 51.6253 115.231 51.4247 115.419 51.2784C115.608 51.132 115.837 51.0469 116.076 51.0344C116.751 51.0344 117.07 51.6054 117.07 52.4099V55.7571H118.507V52.2914C118.505 52.127 118.53 51.9634 118.579 51.8065C118.649 51.5886 118.784 51.3975 118.967 51.2593C119.149 51.1212 119.37 51.0426 119.599 51.0344C120.299 51.0344 120.63 51.6054 120.63 52.5643V55.7571H122.066V52.3524C122.066 50.5028 121.093 49.8384 120.145 49.8384C119.72 49.8295 119.304 49.9552 118.956 50.1976C118.672 50.3819 118.433 50.6273 118.256 50.9159H118.198C118.076 50.5922 117.856 50.3146 117.569 50.1216C117.282 49.9285 116.942 49.8296 116.596 49.8384C116.235 49.8215 115.877 49.9044 115.56 50.078C115.243 50.2516 114.981 50.5092 114.801 50.8225H114.765L114.693 49.9677H113.447C113.472 50.4669 113.493 51.0236 113.493 51.688L113.511 55.7607ZM108.483 52.2591C108.544 51.6665 108.921 50.8476 109.823 50.8476C110.796 50.8476 111.033 51.7275 111.022 52.2591H108.483ZM112.362 53.2754C112.395 53.0712 112.411 52.8646 112.409 52.6577C112.409 51.3863 111.791 49.8456 109.916 49.8456C108.042 49.8456 107.09 51.3504 107.09 52.9558C107.09 54.7228 108.196 55.8756 110.067 55.8756C110.757 55.8918 111.443 55.7697 112.085 55.5165L111.87 54.5217C111.356 54.7023 110.813 54.7911 110.268 54.7838C109.342 54.7838 108.523 54.3349 108.472 53.2898L112.362 53.2754ZM104.551 53.2575C104.554 53.4014 104.538 53.5451 104.504 53.6849C104.446 53.9758 104.289 54.2378 104.06 54.4263C103.831 54.6148 103.544 54.7183 103.247 54.7192C102.32 54.7192 101.81 53.947 101.81 52.8804C101.81 51.8137 102.331 50.9805 103.268 50.9805C103.564 50.9794 103.85 51.0803 104.079 51.2662C104.308 51.4521 104.466 51.7115 104.525 52.0005C104.55 52.1296 104.562 52.2606 104.561 52.3919L104.551 53.2575ZM104.551 47.3244V50.5998H104.525C104.341 50.347 104.095 50.1457 103.811 50.0149C103.527 49.8841 103.214 49.8283 102.902 49.8528C101.512 49.8528 100.302 51.002 100.313 52.9378C100.313 54.7336 101.39 55.8936 102.794 55.8936C103.172 55.9067 103.547 55.8163 103.877 55.6321C104.208 55.4479 104.482 55.177 104.669 54.8485H104.691L104.763 55.7643H106.055C106.034 55.3728 106.009 54.73 106.009 54.1374V47.3136L104.551 47.3244ZM97.8203 53.7315C97.8257 53.8393 97.8136 53.9473 97.7844 54.0512C97.6995 54.2875 97.5425 54.4912 97.3357 54.6336C97.1289 54.776 96.8826 54.8499 96.6315 54.8449C96.5201 54.8548 96.4078 54.8401 96.3027 54.8019C96.1975 54.7637 96.1021 54.7029 96.023 54.6238C95.9438 54.5447 95.8831 54.4492 95.8449 54.3441C95.8067 54.2389 95.792 54.1267 95.8019 54.0153C95.8019 53.1354 96.7859 52.9378 97.8203 52.9378V53.7315ZM99.2569 52.295C99.2569 51.0272 98.7217 49.8492 96.8721 49.8492C96.1427 49.8324 95.4217 50.0083 94.7819 50.3592L95.0656 51.3073C95.5365 51.0285 96.0735 50.8809 96.6207 50.8799C97.6407 50.8799 97.7951 51.5084 97.7951 51.8891V51.9861C95.6403 51.9861 94.3653 52.7044 94.3653 54.1697C94.3645 54.4038 94.4115 54.6357 94.5035 54.851C94.5956 55.0663 94.7307 55.2604 94.9006 55.4216C95.0705 55.5827 95.2715 55.7074 95.4914 55.7879C95.7112 55.8685 95.9452 55.9032 96.179 55.89C96.5042 55.902 96.8278 55.8385 97.1244 55.7045C97.421 55.5706 97.6825 55.3698 97.8885 55.1178H97.9244L98.0322 55.7607H99.3466C99.2746 55.3023 99.2433 54.8384 99.2533 54.3744L99.2569 52.295ZM90.2423 47.3244H88.7483V55.7607H90.2064V53.7926L90.6949 53.2108L92.3541 55.7607H94.1498L91.7041 52.3417L93.8589 49.9785H92.1027L90.6877 51.8389C90.544 52.04 90.3788 52.2878 90.2387 52.514H90.2136L90.2423 47.3244ZM83.3073 52.3919L83.925 50.4202C84.0687 49.9462 84.1872 49.3895 84.3057 48.9262H84.3308C84.4493 49.3895 84.5786 49.9354 84.7331 50.4202L85.3616 52.3919H83.3073ZM85.6094 53.4945L86.3277 55.7607H87.8935L85.2933 47.7626H83.4294L80.8471 55.7607H82.3555L83.0415 53.4945H85.6094ZM74.8351 54.8377C73.9695 54.8377 73.3985 53.9937 73.3985 52.8804C73.3985 51.9215 73.8115 50.9123 74.8351 50.9123C75.8586 50.9123 76.2357 51.9574 76.2357 52.8588C76.2357 54.0332 75.6539 54.8413 74.8243 54.8413L74.8351 54.8377ZM74.8099 55.8936C76.268 55.8936 77.7657 54.9419 77.7657 52.8193C77.7657 51.0631 76.6128 49.8528 74.8925 49.8528C73.1722 49.8528 71.8685 51.0128 71.8685 52.9163C71.8685 54.8197 73.1399 55.8972 74.7632 55.8972L74.8099 55.8936ZM66.8441 52.4386C66.8457 52.3104 66.8613 52.1827 66.8908 52.0579C66.9537 51.7591 67.1155 51.4902 67.3501 51.2947C67.5848 51.0992 67.8784 50.9885 68.1837 50.9805C69.157 50.9805 69.6418 51.8101 69.6418 52.8301C69.6418 54.0045 69.0852 54.73 68.1693 54.73C67.8707 54.7294 67.5809 54.6286 67.3464 54.4436C67.112 54.2587 66.9465 54.0003 66.8764 53.71C66.8509 53.592 66.8389 53.4715 66.8405 53.3509L66.8441 52.4386ZM65.386 54.1481C65.386 54.73 65.3608 55.3692 65.3393 55.7643H66.5855L66.6573 54.8988H66.6825C66.8649 55.2181 67.1324 55.4806 67.4551 55.6568C67.7779 55.8331 68.1433 55.9163 68.5105 55.8972C69.8142 55.8972 71.1323 54.8628 71.1323 52.787C71.1323 51.0308 70.1339 49.8564 68.7224 49.8564C68.3569 49.829 67.9907 49.8982 67.6603 50.057C67.33 50.2159 67.0473 50.4588 66.8405 50.7614H66.8154V47.31H65.3572L65.386 54.1481ZM60.9146 45.7334C60.9909 45.7332 61.0663 45.7487 61.1363 45.7789C61.2063 45.8091 61.2693 45.8534 61.3215 45.9089C61.3737 45.9645 61.4139 46.0302 61.4397 46.1019C61.4655 46.1737 61.4762 46.2499 61.4713 46.326C61.4758 46.4014 61.4646 46.477 61.4385 46.5479C61.4125 46.6189 61.372 46.6836 61.3198 46.7383C61.2676 46.7929 61.2046 46.8361 61.1349 46.8653C61.0652 46.8944 60.9902 46.9089 60.9146 46.9078C60.7668 46.8962 60.6288 46.8294 60.5282 46.7205C60.4275 46.6117 60.3716 46.4689 60.3716 46.3206C60.3716 46.1723 60.4275 46.0295 60.5282 45.9207C60.6288 45.8119 60.7668 45.745 60.9146 45.7334ZM60.9146 45.2126C60.0958 45.2126 59.6217 45.7226 59.6217 46.3404C59.6217 46.9581 60.1209 47.4429 60.9146 47.4429C61.7083 47.4429 62.1968 46.9545 62.1968 46.3404C62.1968 45.7262 61.7478 45.2126 60.929 45.2126H60.9146ZM59.8372 52.3955L60.4513 50.4238C60.595 49.9498 60.7135 49.3931 60.832 48.9298H60.8572C60.9757 49.3931 61.105 49.939 61.2594 50.4238L61.8879 52.3955H59.8372ZM62.1393 53.4981L62.8576 55.7643H64.4235L61.8233 47.7662H59.9593L57.395 55.7643H58.8998L59.5894 53.4981H62.1393Z" fill="#231F20"/>
</svg>
